<svg xmlns="http://www.w3.org/2000/svg" viewBox="0 0 512 512" width="512" height="512">
  <defs>
    <radialGradient id="bg" cx="30%" cy="22%" r="95%">
      <stop offset="0" stop-color="#262c52"/>
      <stop offset=".55" stop-color="#121624"/>
      <stop offset="1" stop-color="#0b0d14"/>
    </radialGradient>
    <linearGradient id="g" x1="0" y1="0" x2="1" y2="1">
      <stop offset="0" stop-color="#8fa0ff"/>
      <stop offset=".55" stop-color="#a78bfa"/>
      <stop offset="1" stop-color="#f472b6"/>
    </linearGradient>
    <linearGradient id="chip" x1="0" y1="0" x2="0" y2="1">
      <stop offset="0" stop-color="#1f2540"/>
      <stop offset="1" stop-color="#151a2e"/>
    </linearGradient>
    <filter id="glow" x="-30%" y="-30%" width="160%" height="160%">
      <feGaussianBlur stdDeviation="18"/>
    </filter>
  </defs>
  <rect width="512" height="512" fill="url(#bg)"/>
  <circle cx="256" cy="226" r="130" fill="#7c8cff" opacity=".22" filter="url(#glow)"/>
  <g stroke="url(#g)" stroke-width="14" stroke-linecap="round">
    <path d="M196 92v34M256 92v34M316 92v34M196 326v34M256 326v34M316 326v34M106 166h34M106 226h34M106 286h34M372 166h34M372 226h34M372 286h34"/>
  </g>
  <rect x="140" y="126" width="232" height="200" rx="38" fill="url(#chip)" stroke="url(#g)" stroke-width="12"/>
  <g transform="translate(0,40)" stroke="url(#g)" stroke-width="16" stroke-linecap="round" stroke-linejoin="round"><path d="M251 130A56 56 0 1 0 305.1 203.8A46 46 0 0 1 251 130Z" fill="url(#g)" stroke="none"/></g>
  <text x="256" y="440" text-anchor="middle" font-family="Inter, 'Segoe UI', 'DejaVu Sans', Arial, sans-serif" font-weight="800" font-size="56" letter-spacing="5" fill="#eef0ff">SUSPEND</text>
  <text x="256" y="478" text-anchor="middle" font-family="Inter, 'Segoe UI', 'DejaVu Sans', Arial, sans-serif" font-weight="700" font-size="22" letter-spacing="5" fill="url(#g)">X-F1REBALL-X</text>
</svg>
